<?xml version="1.0" encoding="utf-8"?>
<!-- Generator: Adobe Illustrator 19.0.0, SVG Export Plug-In . SVG Version: 6.00 Build 0)  -->
<svg version="1.1" id="layer" xmlns="http://www.w3.org/2000/svg" xmlns:xlink="http://www.w3.org/1999/xlink" x="0px" y="0px"
	 viewBox="-153 -46 652 652" style="enable-background:new -153 -46 652 652;" xml:space="preserve">
<style type="text/css">
	.st0{fill:#11337F;}
</style>
<g>
	<path class="st0" d="M466,266c-1.6-5.7-3.8-10.7-7.3-15.2c-3.5-4.6-8.1-8.2-13.3-10.7c-5.4-2.8-12-4.1-19.6-4.1
		c-7.4,0-14.7,2-21.1,5.7c-3.2,1.6-5.7,3.8-7.9,6.3c-1,1-1.6,1.9-2.2,2.8v-11.7h-39.1v114h40.1v-61.9c0-2.8,0.3-5.7,1.3-8.5
		c1.3-4.9,4.5-9.1,8.8-11.7c2.2-1.3,4.7-1.6,7.6-1.6c2.8,0,5.4,0.6,7.3,1.6c1.9,0.9,3.2,2.5,4.4,4.4c0.9,1.9,1.9,4.1,2.2,6.9
		c0.6,2.8,0.6,5.7,0.6,8.5v62.2h40.4V283C468.3,277.3,467.6,271.6,466,266L466,266z M303.7,296c0,13.4-10.9,24.3-24.3,24.3
		c-13.4,0-24.3-10.9-24.3-24.3c0-13.4,10.9-24.3,24.3-24.3C292.8,271.6,303.7,282.5,303.7,296L303.7,296z M279.4,235.3
		c-16.1,0-31.5,6.4-42.9,17.8c-11.4,11.4-17.7,26.8-17.7,42.9c0,16.1,6.4,31.5,17.8,42.9c11.4,11.4,26.8,17.7,42.9,17.7
		c33.5,0,60.6-27.2,60.6-60.7C340.1,262.5,312.9,235.3,279.4,235.3L279.4,235.3z M169.5,320c-8.5,0-16.4-4.5-20.8-11.8
		c-4.4-7.3-4.6-16.4-0.6-23.9c4-7.5,11.7-12.4,20.2-12.8c8.5-0.4,16.7,3.6,21.4,10.7l24.3-27.8c-11.5-12.4-27.6-19.4-44.5-19.3
		c-33.5,0-60.6,27.1-60.6,60.6c0,33.5,27.2,60.6,60.6,60.6c17.4,0,33.2-7.3,44.2-18.9L190,308.6C185.6,315.7,177.9,319.9,169.5,320
		L169.5,320z M-64.2,192.4l-67.6,160.4h45.5l11.7-30.6h58.1l12.3,30.6h46.1L-25,192.4H-64.2z M-28.5,288.1h-34.1l17.1-46.4
		L-28.5,288.1z M53,192.4h40.7v160.4H53V192.4z M53,192.4"/>
</g>
</svg>
