<?xml version="1.0" encoding="utf-8"?>
<!-- Generator: Adobe Illustrator 19.0.0, SVG Export Plug-In . SVG Version: 6.00 Build 0)  -->
<svg version="1.1" id="layer" xmlns="http://www.w3.org/2000/svg" xmlns:xlink="http://www.w3.org/1999/xlink" x="0px" y="0px"
	 viewBox="-153 -46 652 652" style="enable-background:new -153 -46 652 652;" xml:space="preserve">
<style type="text/css">
	.st0{fill:#092849;}
</style>
<path class="st0" d="M277.9,337.1h3v2.9h-3v9c0,0.8,0,1,1.5,1h1.5v2.9h-2.3c-2.6,0-3.9-0.6-3.9-3.7V340h-2.6v-2.9h2.6v-4.5h3.2
	 M294.4,345c0-3.2-1.8-5.4-4.3-5.4c-2.6,0-4.3,2.2-4.3,5.4c0,3.2,1.7,5.4,4.3,5.4C292.6,350.4,294.4,348.2,294.4,345 M290,336.7
	c4.7,0,7.7,3.3,7.7,8.3c0,5-3,8.3-7.7,8.3c-4.7,0-7.7-3.2-7.7-8.3C282.3,340,285.3,336.7,290,336.7 M323.9,340.3h-10.3v-9h-3.5v21.6
	h3.5v-9.6h10.3v9.6h3.5v-21.6h-3.5 M173.5,343.3h10.8v-3h-10.8v-5.9h11.6v-3H170v21.6h15.2v-3h-11.7 M224.4,339.4v-2.3h-3v15.8h3.2
	v-7.1c0-4,1.6-5.8,5.1-5.8h0.4v-3.3l-0.3,0C227.3,336.7,225.6,337.5,224.4,339.4 M211.3,339.6c-2.4,0-3.6,1.7-3.9,3.6h7.9
	C215,341.1,213.4,339.6,211.3,339.6 M211.5,336.7c2,0,3.6,0.7,4.9,2c1.6,1.6,2.4,4.3,2.3,7.1l0,0.3h-11.3c0,1.2,0.4,2.3,1.2,3.1
	c0.8,0.8,1.8,1.2,3.2,1.2c1.4,0,3.1-0.5,3.6-2.7l0.1-0.3h3.2l-0.1,0.4c-0.7,3.5-3.2,5.4-6.8,5.4c-4.7,0-7.4-3-7.6-8.3
	C204,340.2,207.1,336.7,211.5,336.7 M255.2,348.8l-4.2-11.7h-3.6l6.1,15.4l-1,2.4c-0.5,0.9-0.9,1.2-1.7,1.2c-0.3,0-0.7-0.1-1.1-0.2
	l-0.7-0.2v3l0.2,0.1c0.5,0.2,1.1,0.3,1.8,0.3c2.6,0,3.6-1.5,4.7-4.3l6.8-17.6h-3.4 M238.2,350.2c3.1,0,4.1-2.8,4.1-5.5
	c0-2.5-1-5.1-3.9-5.1c-3.8,0-4.1,3.9-4.1,5.2C234.3,346.4,234.7,350.2,238.2,350.2 M242.4,337.1h3v14.2c0,5.2-2.5,7.8-7.4,7.8
	c-3,0-6.4-1.2-6.6-4.8l0-0.4h3.2l0,0.3c0.1,1.7,2.3,2.1,3.6,2.1c2.7,0,4.1-1.8,4.2-5.2c-1,1.2-2.6,2-4.4,2c-4.9,0-7.1-4-7.1-8
	c0-3.8,1.9-8.3,7.3-8.3c1.7,0,3.2,0.6,4.2,1.8V337.1z M195.6,336.7c-2,0-3.5,0.7-4.6,2v-1.7h-3v15.8h3.2V344c0-2.7,1.5-4.4,4.1-4.4
	c1.7,0,2.7,1,2.7,2.7v10.6h3.2v-10.3C201.2,338.7,199.3,336.7,195.6,336.7 M448.1,339.6c-2.4,0-3.6,1.7-3.9,3.6h7.9
	C451.8,341.1,450.2,339.6,448.1,339.6 M448.2,336.7c2,0,3.6,0.7,4.9,2c1.6,1.6,2.4,4.3,2.3,7.1l0,0.3h-11.3c0,1.2,0.4,2.3,1.2,3.1
	c0.8,0.8,1.8,1.2,3.2,1.2c1.9,0,3.2-0.9,3.6-2.7l0.1-0.3h3.2l-0.1,0.4c-0.7,3.5-3.2,5.4-6.8,5.4c-4.7,0-7.4-3-7.6-8.3
	C440.8,340.2,443.9,336.7,448.2,336.7 M375.8,332.5h-3.2v4.5h-2.6v2.9h2.6v9.3c0,3.1,1.3,3.7,3.9,3.7h2.2V350h-1.5
	c-1.5,0-1.5-0.2-1.5-1v-9h3v-2.9h-3 M389,336.7c-1.5,0-3.3,0.5-4.5,1.8v-7.2h-3.2v21.6h3.2V344c0-2.7,1.5-4.4,4.1-4.4
	c1.7,0,2.7,1,2.7,2.7v10.6h3.2v-10.3C394.6,338.7,392.8,336.7,389,336.7 M434.3,339.4v-2.3h-3v15.8h3.2v-7.1c0-4,1.6-5.8,5.1-5.8
	h0.4v-3.3l-0.3,0C437.2,336.7,435.5,337.5,434.3,339.4 M408.7,347c-0.3,2.2-1.7,3.4-3.8,3.4c-3,0-4.1-2.7-4.1-5.2
	c0-2.5,0.8-5.6,4.3-5.6c1.8,0,3,1,3.4,2.7l0.1,0.3h3.2l0-0.4c-0.3-3.5-2.9-5.5-6.9-5.5c-4.6,0-7.5,3.2-7.5,8.5c0,5,2.8,8.1,7.4,8.1
	c3.9,0,6.4-2.3,7-6.2l0.1-0.4h-3.3 M419.9,350.4c3.1,0,4.3-1.9,4.3-3.1v-1.9c-0.7,0.3-1.7,0.4-2.7,0.6c-0.5,0.1-0.9,0.1-1.4,0.2
	c-2,0.3-2.8,1-2.8,2.4C417.3,350.1,418.9,350.4,419.9,350.4 M427.8,350.4c0.1,0,0.3,0,0.6-0.1l0.5-0.2v2.6l-0.2,0.1
	c-0.5,0.3-1.1,0.5-2,0.5c-1.3,0-2.1-0.7-2.4-1.9c-1.3,1.3-3,1.9-5,1.9c-3.3,0-5.3-1.7-5.3-4.6c0-3.7,2.7-4.5,5.4-5
	c0.6-0.1,1.2-0.2,1.7-0.3c2-0.3,3.1-0.5,3.1-1.6c0-1.5-0.9-2.2-3-2.2c-2.3,0-3.3,0.8-3.4,2.5l0,0.3h-3.2l0-0.4
	c0.1-3.5,2.5-5.4,6.7-5.4c1.5,0,6,0,6,4.5v7.8C427.3,350.4,427.4,350.4,427.8,350.4 M353.2,350.4c2.9,0,4.3-1.8,4.3-3.1v-1.9
	c-0.7,0.3-1.7,0.4-2.7,0.6c-0.4,0.1-0.9,0.1-1.4,0.2c-1.9,0.3-2.7,1-2.7,2.4C350.6,350.1,352.2,350.4,353.2,350.4 M361,350.4
	c0.1,0,0.3,0,0.6-0.1l0.5-0.2v2.6l-0.2,0.1c-0.5,0.3-1.1,0.5-2,0.5c-1.3,0-2.1-0.7-2.4-1.9c-1.3,1.3-3,1.9-5,1.9
	c-3.3,0-5.3-1.7-5.3-4.6c0-3.7,2.7-4.5,5.4-5c0.6-0.1,1.2-0.2,1.7-0.3c2-0.3,3.1-0.5,3.1-1.6c0-1.5-0.9-2.2-3-2.2
	c-2.3,0-3.3,0.8-3.4,2.5l0,0.3h-3.2l0-0.4c0.1-3.5,2.5-5.4,6.7-5.4c1.5,0,6,0,6,4.5v7.8C360.6,350.4,360.7,350.4,361,350.4
	 M338,339.6c-2.4,0-3.7,1.7-3.9,3.6h7.9C341.7,341.1,340.1,339.6,338,339.6 M338.2,336.7c2,0,3.6,0.7,4.9,2c1.6,1.6,2.4,4.3,2.3,7.1
	l0,0.3h-11.3c0,1.2,0.4,2.3,1.2,3.1c0.8,0.8,1.8,1.2,3.2,1.2c1.4,0,3.1-0.5,3.6-2.7l0.1-0.3h3.2l-0.1,0.4c-0.7,3.5-3.2,5.4-6.8,5.4
	c-4.7,0-7.4-3-7.6-8.3C330.7,340.2,333.9,336.7,338.2,336.7 M364.7,352.9h3.2v-21.6h-3.2V352.9z M392.2,225.8
	c-2.8,0-5.1,2.3-5.1,5.1c0,2.8,2.3,5.1,5.1,5.1c2.8,0,5.1-2.3,5.1-5.1C397.3,228.1,395,225.8,392.2,225.8 M150.1,283
	c0,14.9-8.2,24.6-21,24.6c-14.7,0-16.4-10.8-16.4-19v-39.1h-6.1v38.3c0,6.9,0,25.3,22.4,25.3c9.2,0,17.2-4.7,21.1-11.9v10.4h6.1
	v-62.2h-6.1 M54.6,225.8h-6.8v85.8h54.5v-6.1H54.6 M433.9,276.9c-0.6-0.1-1.3-0.3-1.9-0.4c-9-1.9-17.6-3.7-17.6-12.1
	c0-5.3,4.4-10.9,16.6-10.9c6.3,0,17,1.9,17.1,14.7l0,0.8h6.1v-0.8c0-13-8.2-20.1-23.2-20.1c-14.2,0-22.7,6.1-22.7,16.4
	c0,13.7,12.4,16.2,21.5,18l1.6,0.3c9.9,2,18.5,3.7,18.5,12.8c0,3.6-1.8,12.1-18.4,12.1c-11,0-18.6-6.6-19.2-16.9l-0.1-0.8h-6l0,0.8
	c0.3,13.8,10,22.4,25.3,22.4c5.7,0,24.5-1.3,24.5-17.6C456,282.1,446,279.2,433.9,276.9 M375.2,311.6v-38.3c0-6.9,0-25.3-22.4-25.3
	c-9.2,0-17.2,4.7-21.1,11.9v-10.5h-6.1v62.2h6.1v-33.6c0-14.9,8.2-24.6,21-24.6c14.7,0,16.4,10.8,16.4,19v39.1 M287.6,253.5
	c-12.6,0-20.2,11.4-21.4,22.9h42.7C308.4,264.9,301,253.5,287.6,253.5 M314.5,290.5c-2.4,14.4-12.2,22.6-26.9,22.6
	c-7.6,0-14.2-2.6-19-7.5c-5.6-5.7-8.6-14.2-8.5-24c-0.1-10.6,3.2-20.1,9.2-26.2c4.7-4.8,11.1-7.4,18.3-7.4c7.9,0,14.6,2.6,19.4,7.6
	c5.7,5.9,8.5,15,8,25.5l0,0.8h-48.8c0,8.1,2.6,15.3,7.2,19.9c3.7,3.8,8.6,5.7,14.3,5.7c11,0,18.8-6.5,20.9-17.4l0.1-0.7h6.1
	L314.5,290.5z M251.7,311.6v-42.2c0-13.6-7.2-21.4-19.8-21.4c-8.9,0-15.2,3.8-19.1,11.6c-2-5.9-7.7-11.6-18.5-11.6
	c-7.8,0-15.1,4.5-18.4,10.8v-9.4h-6.1v62.2h6.1V275c0-15.8,11-21.5,18.4-21.5c4,0,13.4,1.5,13.4,15.8v42.3h6.1V275
	c0-13.3,7-21.5,18.2-21.5c4.1,0,13.7,1.5,13.7,15.8v42.3 M389.1,311.6h6.1v-62.2h-6.1V311.6z M466,239.5c0.4-1,0.6-2,0.6-3.1
	c0-1.1-0.2-2.2-0.6-3.1c-0.4-0.9-0.9-1.8-1.6-2.5c-0.7-0.7-1.5-1.2-2.4-1.6c-0.9-0.4-1.9-0.6-2.9-0.6c-1,0-2,0.2-2.9,0.6
	c-0.9,0.4-1.7,0.9-2.4,1.6c-0.7,0.7-1.2,1.5-1.6,2.5c-0.4,1-0.6,2-0.6,3.1c0,1.1,0.2,2.2,0.6,3.1c0.4,1,0.9,1.8,1.6,2.5
	c0.7,0.7,1.5,1.2,2.4,1.6c0.9,0.4,1.9,0.6,2.9,0.6c1,0,2-0.2,2.9-0.6c0.9-0.4,1.7-0.9,2.4-1.6C465.1,241.3,465.6,240.5,466,239.5
	 M468.5,232.3c0.6,1.2,0.8,2.6,0.8,4.1c0,1.5-0.3,2.9-0.8,4.1c-0.6,1.2-1.3,2.3-2.2,3.1c-0.9,0.9-2,1.5-3.3,2
	c-1.2,0.5-2.5,0.7-3.9,0.7s-2.6-0.2-3.9-0.7c-1.2-0.5-2.3-1.1-3.3-2c-0.9-0.9-1.7-1.9-2.2-3.1c-0.6-1.2-0.8-2.6-0.8-4.1
	c0-1.5,0.3-2.9,0.8-4.1c0.6-1.2,1.3-2.3,2.2-3.1c0.9-0.9,2-1.5,3.3-2c1.2-0.5,2.5-0.7,3.9-0.7s2.6,0.2,3.9,0.7
	c1.2,0.5,2.3,1.1,3.3,2C467.2,230.1,467.9,231.1,468.5,232.3 M459.3,235.5c0.6,0,1.2-0.1,1.6-0.3c0.4-0.2,0.6-0.6,0.6-1.3
	c0-0.3-0.1-0.5-0.2-0.7c-0.1-0.2-0.3-0.3-0.5-0.4c-0.2-0.1-0.5-0.2-0.7-0.2c-0.3,0-0.5-0.1-0.8-0.1h-1.9v2.9 M461.9,236.9
	c-0.4,0.1-0.7,0.2-1.1,0.2l3,4.9h-2.3l-2.7-4.8h-1.4v4.8h-2.2v-11.1h4.2c1.4,0,2.5,0.2,3.2,0.7c0.8,0.5,1.1,1.3,1.1,2.6
	c0,0.5-0.1,1-0.2,1.3c-0.2,0.4-0.4,0.7-0.6,0.9C462.6,236.6,462.3,236.7,461.9,236.9 M-50.8,193.6c-15.8,0-31.8,4.7-45.8,14.5
	c-36.2,25.3-45,75.2-19.6,111.4c15.6,22.2,40.4,34.1,65.6,34.1c15.8,0,31.8-4.7,45.8-14.5c0.8-0.5,1.5-1.1,2.2-1.6c-1.9,0-4,0-6.3,0
	c-23.8,0-65.8-2.1-65.8-47.7v-63.3h24.2c0,0,0,63.3,0,63.8c0,30.1,20.8,39,37.7,39c8.6,0,16.2-2.3,19.5-5.3c7.6-7,7.7-13.2,7.7-33.7
	l0-63.4C-1.3,205.2-25.9,193.6-50.8,193.6"/>
</svg>
